<?xml version="1.0" encoding="utf-8"?>
<!-- Generator: Adobe Illustrator 23.0.6, SVG Export Plug-In . SVG Version: 6.00 Build 0)  -->
<svg version="1.1" id="レイヤー_1" xmlns="http://www.w3.org/2000/svg" xmlns:xlink="http://www.w3.org/1999/xlink" x="0px"
	 y="0px" viewBox="0 0 144.85 109.23" style="enable-background:new 0 0 144.85 109.23;" xml:space="preserve">
<style type="text/css">
	.st0{fill:none;stroke:#000000;stroke-miterlimit:10;}
	.st1{fill:none;stroke:#000000;stroke-miterlimit:10;stroke-dasharray:1.9251,1.9251;}
	.st2{font-family:'Helvetica';}
	.st3{font-size:8px;}
	.st4{fill:none;}
</style>
<path class="st0" d="M99.95,34.44c-7.05,7.05-16.79,11.42-27.54,11.42c-10.74,0-20.48-4.37-27.54-11.42L4.59,74.73
	c17.38,17.38,41.37,28.14,67.82,28.14s50.45-10.76,67.82-28.14L99.95,34.44z"/>
<g>
	<g>
		<line class="st0" x1="72.41" y1="7.43" x2="73.13" y2="8.13"/>
		<line class="st1" x1="74.5" y1="9.48" x2="98.55" y2="33.07"/>
		<line class="st0" x1="99.23" y1="33.74" x2="99.95" y2="34.44"/>
	</g>
</g>
<text transform="matrix(0.7071 0.7071 -0.7071 0.7071 80.8348 7.0751)" class="st2 st3">Radius</text>
<text transform="matrix(0.7071 0.7071 -0.7071 0.7071 116.1815 41.0236)" class="st2 st3">Height</text>
<path id="SVGID_x5F_1_x5F_" class="st4" d="M36.06,43.71c9.31,9.31,22.17,15.08,36.35,15.08c14.18,0,27.04-5.77,36.35-15.08"/>
<text><textPath  xlink:href="#SVGID_x5F_1_x5F_" startOffset="22.7656%">
<tspan  class="st2 st3">Arc Length</tspan></textPath>
</text>
<circle cx="72.41" cy="7.43" r="1.71"/>
</svg>
